<svg width="2500" height="2500" viewBox="0 0 2500 2500" fill="none" xmlns="http://www.w3.org/2000/svg">
<path d="M833.401 1250C833.401 1019.89 1019.89 833.3 1250 833.3C1480.11 833.3 1666.7 1019.89 1666.7 1250C1666.7 1480.11 1480.11 1666.7 1250 1666.7C1019.89 1666.7 833.401 1480.11 833.401 1250ZM608.138 1250C608.138 1604.5 895.497 1891.86 1250 1891.86C1604.5 1891.86 1891.86 1604.5 1891.86 1250C1891.86 895.497 1604.5 608.138 1250 608.138C895.497 608.138 608.138 895.497 608.138 1250ZM1767.27 582.694C1767.27 665.489 1834.41 732.734 1917.31 732.734C2000.1 732.734 2067.35 665.489 2067.35 582.694C2067.35 499.899 2000.2 432.754 1917.31 432.754C1834.41 432.754 1767.27 499.899 1767.27 582.694ZM744.952 2267.47C623.082 2261.91 556.846 2241.62 512.823 2224.45C454.463 2201.74 412.863 2174.68 369.043 2130.96C325.323 2087.24 298.162 2045.64 275.545 1987.28C258.38 1943.26 238.086 1877.02 232.532 1755.15C226.474 1623.38 225.263 1583.8 225.263 1250C225.263 916.195 226.575 876.716 232.532 744.851C238.086 622.981 258.481 556.846 275.545 512.722C298.263 454.362 325.323 412.763 369.043 368.942C412.763 325.222 454.362 298.061 512.823 275.444C556.846 258.279 623.082 237.985 744.952 232.431C876.716 226.373 916.296 225.162 1250 225.162C1583.8 225.162 1623.28 226.474 1755.15 232.431C1877.02 237.985 1943.15 258.38 1987.28 275.444C2045.64 298.061 2087.24 325.222 2131.06 368.942C2174.78 412.662 2201.84 454.362 2224.56 512.722C2241.72 556.745 2262.02 622.981 2267.57 744.851C2273.63 876.716 2274.84 916.195 2274.84 1250C2274.84 1583.7 2273.63 1623.28 2267.57 1755.15C2262.02 1877.02 2241.62 1943.26 2224.56 1987.28C2201.84 2045.64 2174.78 2087.24 2131.06 2130.96C2087.34 2174.68 2045.64 2201.74 1987.28 2224.45C1943.26 2241.62 1877.02 2261.91 1755.15 2267.47C1623.38 2273.53 1583.8 2274.74 1250 2274.74C916.296 2274.74 876.716 2273.53 744.952 2267.47V2267.47ZM734.653 7.5727C601.575 13.6309 510.703 34.7334 431.24 65.63C349.051 97.5363 279.382 140.347 209.814 209.814C140.347 279.281 97.5363 348.95 65.63 431.24C34.7334 510.703 13.6309 601.575 7.5727 734.653C1.41357 867.932 0 910.541 0 1250C0 1589.46 1.41357 1632.07 7.5727 1765.35C13.6309 1898.42 34.7334 1989.3 65.63 2068.76C97.5363 2150.95 140.246 2220.72 209.814 2290.19C279.281 2359.65 348.95 2402.36 431.24 2434.37C510.804 2465.27 601.575 2486.37 734.653 2492.43C868.033 2498.49 910.541 2500 1250 2500C1589.56 2500 1632.07 2498.59 1765.35 2492.43C1898.42 2486.37 1989.3 2465.27 2068.76 2434.37C2150.95 2402.36 2220.62 2359.65 2290.19 2290.19C2359.65 2220.72 2402.36 2150.95 2434.37 2068.76C2465.27 1989.3 2486.47 1898.42 2492.43 1765.35C2498.49 1631.97 2499.9 1589.46 2499.9 1250C2499.9 910.541 2498.49 867.932 2492.43 734.653C2486.37 601.575 2465.27 510.703 2434.37 431.24C2402.36 349.051 2359.65 279.382 2290.19 209.814C2220.72 140.347 2150.95 97.5363 2068.86 65.63C1989.3 34.7334 1898.42 13.5299 1765.45 7.5727C1632.17 1.51454 1589.56 0 1250.1 0C910.541 0 868.033 1.41357 734.653 7.5727" fill="white"/>
</svg>
